<svg id="Capa_1" data-name="Capa 1" xmlns="http://www.w3.org/2000/svg" viewBox="0 0 963 963"><defs><style>.cls-1{fill:#9c27b0;}</style></defs><title>ArrowUp</title><path class="cls-1" d="M481.5,963C747.4,963,963,747.4,963,481.5S747.4,0,481.5,0,0,215.6,0,481.5,215.6,963,481.5,963Zm63.23-851.16,233.2,213.4a90,90,0,1,1-121.6,132.7L484,300.24l-177.3,162.6A90,90,0,1,1,185,330.14l238.1-218.3A90,90,0,0,1,544.73,111.84ZM539.1,421.2,772.3,634.6A90,90,0,1,1,650.7,767.3L478.4,609.6,301.1,772.2A90,90,0,1,1,179.4,639.5L417.5,421.2A90,90,0,0,1,539.1,421.2Z" transform="translate(0 0)"/></svg>