<?xml version="1.0" encoding="utf-8"?>
<!-- Generator: Adobe Illustrator 24.0.2, SVG Export Plug-In . SVG Version: 6.00 Build 0)  -->
<svg version="1.1" id="Capa_1" xmlns="http://www.w3.org/2000/svg" xmlns:xlink="http://www.w3.org/1999/xlink" x="0px" y="0px"
	 viewBox="0 0 494 80" style="enable-background:new 0 0 494 80;" xml:space="preserve">
<style type="text/css">
	.st0{fill:#FFFFFF;stroke:#FFFFFF;stroke-width:0.2706;stroke-miterlimit:10;}
	.st1{fill:#FFFFFF;}
</style>
<title>logo</title>
<g id="BearComponents">
	<g id="Acessorio">
		<path id="Corbatin" d="M43.7,71.7c1.4-1.4,12.7-9.6,12.2,0.5c0,9.1-8.3,7.4-12,3.4c-1.4,1.6-2.7,1.6-4.1,0
			c-1.5,2.2-11.3,7.6-11.9-3.4c-0.6-10.7,11.8-0.8,12.2-0.5C40.1,71.7,42,70.1,43.7,71.7z"/>
	</g>
	<g id="Componentes">
		<path id="Silueta" d="M33.7,7.7C26.1,1.3,20-1.1,16.4,3.3c-4.2,4.6-3.9,9.2-1,13.9c-9.3,18.2-6.8,30.7,3.7,39.2
			c-0.3-2.5,0-4.5,0.6-6c1.5,6.3,4.7,10.5,10.9,13.4c-0.7-2.1-1-4.6-1-7.5c1.9,6.1,5.8,10.8,12.3,14.1c6.8-3.6,10.5-9.2,12.1-14.1
			c0.1,2.6-0.3,5.2-1,7.6c5.7-2.6,9.5-7.2,10.9-13.5c0.5,1.4,0.8,3.1,0.7,5.9c10.3-8.2,13.4-20.9,3.6-39c3.3-4.7,3-9.4-0.6-13.9
			C63.9-0.8,57.9,1.1,50,7.7C44.7,7,39.3,7,33.7,7.7z"/>
		<path id="Boca" class="st0" d="M37.3,46.9c3-0.2,6-0.2,9,0c0,1.7-1.5,2.9-4.4,2.8C38.5,49.8,37.2,48.5,37.3,46.9z"/>
		<path id="Nariz" class="st0" d="M36.5,31.8c3.3-2.4,7.2-2.3,10.7,0c0.1,2.1-1.1,3.6-5,4.5c-0.1,6.3,1.7,9.6,5.6,9.4
			c6.3-0.5,7.7-6,4.8-14.8c-2.1-5.5-5.4-9-10.4-9.2c-4.7-0.2-8.7,2.3-11.1,9c-2.7,6.9-2,13.4,3.8,15c4.9,0.5,6.6-3.1,6.3-9.4
			C38.1,35.5,36.6,34.1,36.5,31.8z"/>
	</g>
</g>
<path class="st1" d="M85.2,21.5v-4h23.6v4h-9.6v37h-4.4v-37H85.2z"/>
<path class="st1" d="M116.2,41.4h16.1v3.4h-16.1V41.4z"/>
<path class="st1" d="M184.1,25.1l-3.4,2.5c-1.9-2.3-4.1-4.1-6.8-5.3c-2.6-1.2-5.5-1.8-8.7-1.8c-3.4,0-6.6,0.8-9.6,2.4
	c-2.9,1.6-5.2,3.7-6.8,6.3c-1.6,2.7-2.4,5.6-2.4,8.9c0,5,1.8,9.2,5.4,12.5c3.6,3.3,8.1,5,13.6,5c6,0,11.1-2.3,15.1-6.8l3.4,2.5
	c-2.1,2.6-4.8,4.6-8,6c-3.2,1.4-6.8,2.1-10.8,2.1c-7.5,0-13.5-2.4-17.8-7.2c-3.7-4-5.5-8.9-5.5-14.6c0-6,2.2-11.1,6.6-15.2
	s10-6.2,16.6-6.2c4,0,7.7,0.8,10.9,2.3C179.4,20.3,182.1,22.4,184.1,25.1z"/>
<path class="st1" d="M217.8,16.5c6.5,0,12,2.1,16.4,6.2c4.4,4.1,6.6,9.3,6.6,15.3c0,6-2.2,11.1-6.6,15.3c-4.4,4.2-9.7,6.3-16.1,6.3
	c-6.4,0-11.8-2.1-16.2-6.3c-4.4-4.2-6.6-9.2-6.6-15.1c0-3.9,1-7.6,3-11c2-3.4,4.7-6,8.2-7.9C210,17.4,213.8,16.5,217.8,16.5z
	 M218,20.5c-3.2,0-6.2,0.8-9.1,2.4c-2.9,1.6-5.1,3.7-6.7,6.4c-1.6,2.7-2.4,5.7-2.4,9c0,4.9,1.8,9,5.3,12.4c3.6,3.4,7.8,5,12.8,5
	c3.3,0,6.4-0.8,9.3-2.3s5.1-3.7,6.7-6.3c1.6-2.7,2.4-5.7,2.4-8.9c0-3.3-0.8-6.2-2.4-8.8c-1.6-2.6-3.8-4.7-6.7-6.3
	C224.3,21.2,221.2,20.5,218,20.5z"/>
<path class="st1" d="M252,58.5l6.2-41h0.7l17.5,33.7l17.4-33.7h0.7l6.2,41h-4.2l-4.3-29.4l-15.2,29.4h-1.1L260.4,29l-4.2,29.6H252z"
	/>
<path class="st1" d="M313.5,17.5h8.6c4.9,0,8.2,0.2,10,0.6c2.5,0.6,4.5,1.8,6,3.6c1.6,1.8,2.3,4.1,2.3,6.8c0,2.7-0.8,5-2.3,6.8
	c-1.5,1.8-3.6,3-6.3,3.6c-2,0.4-5.6,0.7-11,0.7h-3.1v19.1h-4.3V17.5z M317.8,21.5v13.9l7.3,0.1c2.9,0,5.1-0.3,6.5-0.8
	c1.4-0.5,2.4-1.3,3.2-2.5c0.8-1.1,1.2-2.4,1.2-3.8c0-1.4-0.4-2.6-1.2-3.8s-1.8-2-3.1-2.4s-3.4-0.7-6.3-0.7H317.8z"/>
<path class="st1" d="M371.2,17.5l20.1,41h-4.7L379.8,45h-18.6l-6.7,13.5h-4.8l20.4-41H371.2z M370.6,26.2l-7.4,14.9H378L370.6,26.2z
	"/>
<path class="st1" d="M402.5,58.5v-41h0.9L432.1,49V17.5h4.2v41h-1l-28.4-31.1v31.1H402.5z"/>
<path class="st1" d="M447.9,17.5h5l11,16.9l10.9-16.9h5l-13.7,21.4v19.6h-4.2V38.9L447.9,17.5z"/>
</svg>
